<?xml version="1.0" encoding="utf-8"?>
<!-- Generator: Adobe Illustrator 25.2.0, SVG Export Plug-In . SVG Version: 6.00 Build 0)  -->
<svg version="1.1" id="Layer_1" xmlns="http://www.w3.org/2000/svg" xmlns:xlink="http://www.w3.org/1999/xlink" x="0px" y="0px"
	 viewBox="0 0 45 45" style="enable-background:new 0 0 45 45;" xml:space="preserve">
<style type="text/css">
	.st0{fill:#FFFFFF;}
</style>
<g>
	<path class="st0" d="M11.8,26.4c0-4.4,0-8.9,0-13.3c0-2-1.3-3.6-3.3-3.9c-0.3-0.1-0.7,0-1-0.1c-1.7-0.4-2.9-1.9-3-3.7
		C4.5,4.1,4.7,3,5.7,2.1c0.7-0.7,1.6-1,2.6-1C14.2,1,20,1,25.9,1c1.5,0,2.9,0.4,4.3,0.9c2.6,0.9,4.8,2.4,6.5,4.6
		c1.5,2.1,2.3,4.4,2.5,6.9c0.2,1.9,0.1,3.7-0.4,5.6c-0.8,2.8-2.3,5-4.6,6.7c-1.8,1.3-2.2,3.3-1.1,5.3c1.3,2.3,2.7,4.7,4,7
		c1.5,2.6-0.3,5.7-3.3,5.8c-6,0.2-12,0.1-17.9,0.1c-2.4,0-4-1.7-4-4C11.8,35.4,11.8,30.9,11.8,26.4z"/>
</g>
</svg>
